<mxfile host="app.diagrams.net" modified="2023-09-15T14:10:06.000Z" agent="Mozilla/5.0 (Macintosh; Intel Mac OS X 10.15; rv:109.0) Gecko/20100101 Firefox/117.0" version="21.7.5" etag="SMYDjB9jf1FeEY2igbIp" type="github">
  <diagram name="PÃ¡gina-1" id="e60TQ1UO-nG2-bENWtMV">
    <mxGraphModel>
      <root>
        <mxCell id="0" />
        <mxCell id="1" parent="0" />
      </root>
    </mxGraphModel>
  </diagram>
</mxfile>
